<svg width="148" height="120" viewBox="0 0 148 120" fill="none" xmlns="http://www.w3.org/2000/svg">
<path d="M60.8934 70.6609C61.3262 73.7965 61.7767 76.8438 62.342 80.05L60.8934 70.6609Z" fill="#003555"/>
<path d="M132.966 7.63196L129.972 12.0483L123.533 7.63196L119.24 13.8855L126.086 18.6639L129.009 14.0798L135.528 18.6639L139.776 12.2867L132.966 7.63196Z" fill="#003555"/>
<path d="M140.483 32.3182C139.703 29.9325 138.343 27.7776 136.526 26.0471C134.916 24.5307 132.783 23.6952 130.572 23.7153C128.564 23.7374 126.63 24.4803 125.123 25.8086C123.407 27.2579 122.032 29.0673 121.095 31.1082C120.141 33.0787 119.632 35.2345 119.602 37.4235C119.552 38.5048 119.735 39.5844 120.139 40.5887C120.543 41.5931 121.158 42.4987 121.943 43.2442C123.497 44.6868 125.806 45.4082 128.868 45.4082C130.979 45.4345 133.088 45.2331 135.157 44.8075C135.112 45.3375 135.042 45.8498 134.953 46.3356C134.91 46.6488 134.845 46.9587 134.759 47.263C132.988 47.7644 131.166 48.0607 129.327 48.1463C126.889 48.3524 122.682 48.4525 116.705 48.4466C115.342 48.4964 113.978 48.3627 112.651 48.0491C112.233 47.9307 111.845 47.7244 111.513 47.4442C111.181 47.164 110.912 46.8161 110.725 46.4239C110.257 45.2028 110.052 43.8964 110.125 42.5906V11.0846L109.524 10.6871L101.822 12.754V42.6612C101.86 44.3139 101.703 45.9652 101.354 47.581C99.6726 48.2567 97.8642 48.5581 96.0545 48.4643C94.928 48.5092 93.8021 48.3629 92.7246 48.0315C91.9587 47.7315 91.2919 47.2237 90.7991 46.5652C90.0238 45.482 89.3356 44.339 88.7411 43.147C87.4162 40.5797 86.3415 38.663 85.5172 37.397C84.7643 36.2099 83.7968 35.1735 82.6642 34.3409C81.5234 33.5469 80.1585 33.1384 78.769 33.175C76.6404 33.175 74.2203 34.1024 71.5263 35.9661C68.9717 37.73 66.6483 39.8071 64.6104 42.1489L64.0804 42.7672C62.5035 44.6095 61.3032 46.7431 60.5474 49.0472C59.7716 51.6452 59.4021 54.3475 59.4521 57.0584C59.5463 60.3297 59.8413 63.5921 60.3354 66.8273C60.512 68.108 60.671 69.3622 60.8477 70.5988L62.2962 79.9879L62.5259 81.4364L63.9656 90.746C66.6154 90.3397 69.1503 88.1581 71.6676 87.213L66.7567 55.9896C66.6058 54.4547 66.5645 52.911 66.633 51.3702L68.1522 49.6037C73.075 54.9032 77.5943 57.553 81.7103 57.553C83.9361 57.553 85.8175 56.4489 87.372 54.232C88.2289 55.0771 89.2598 55.7251 90.3928 56.131C91.6275 56.5291 92.9203 56.7172 94.2173 56.6874C96.8335 56.7687 99.4486 56.4923 101.99 55.866C103.756 55.3944 105.334 54.3925 106.512 52.9954C107.431 54.3448 108.741 55.3804 110.266 55.9632C111.745 56.5096 113.309 56.7878 114.886 56.7846C119.797 56.7846 123.662 56.711 126.483 56.5638C128.803 56.4723 131.109 56.1647 133.372 55.6452C134.946 55.2925 136.429 54.6157 137.727 53.6578C138.631 52.886 139.35 51.9198 139.829 50.8314C140.508 49.3718 141.01 47.8356 141.322 46.2561C141.703 44.5302 141.895 42.7681 141.896 41.0007C141.92 38.0474 141.442 35.1114 140.483 32.3182ZM80.7211 49.7715C79.3473 49.6822 78.0258 49.2111 76.9054 48.4113C75.247 47.32 73.7411 46.0131 72.4272 44.5249C73.3168 43.563 74.3192 42.7118 75.4127 41.9899C76.159 41.4718 77.0322 41.1665 77.9388 41.1067C78.7337 41.1067 79.5375 41.6543 80.3678 42.7672C81.537 44.4889 82.5481 46.3129 83.3885 48.2169C83.3941 48.2667 83.4158 48.3132 83.4503 48.3494C83.4754 48.3748 83.4948 48.4053 83.507 48.4389C83.5191 48.4724 83.5239 48.5082 83.521 48.5437C83.174 48.9426 82.7429 49.2595 82.2588 49.4718C81.7747 49.6841 81.2495 49.7864 80.7211 49.7715ZM130.546 38.2096C129.405 38.2795 128.262 38.1111 127.189 37.715C126.884 37.5856 126.625 37.3673 126.445 37.0884C126.266 36.8096 126.174 36.4831 126.183 36.1516C126.191 35.4049 126.388 34.6725 126.757 34.0229C127.117 33.3281 127.631 32.7241 128.258 32.2564C128.832 31.8047 129.542 31.559 130.272 31.5586C130.913 31.5855 131.538 31.7685 132.092 32.0918C132.646 32.415 133.113 32.8687 133.452 33.4135C134.396 34.7256 135.027 36.2362 135.298 37.8298C133.724 38.058 132.136 38.1848 130.546 38.2096Z" fill="#003555"/>
<path d="M10.9615 69.4235L11.6239 69.5737C12.0479 69.662 12.6662 69.821 13.4611 69.9976C14.2561 70.1743 15.2276 70.4304 16.2964 70.7219C17.3651 71.0134 18.6017 71.349 19.9266 71.7288C20.589 71.932 21.2868 72.1175 21.9846 72.3559L23.071 72.6827L24.1751 73.0537C24.9259 73.2922 25.6855 73.566 26.4716 73.831L28.8387 74.7142C30.4374 75.3325 32.0803 75.9773 33.7055 76.7193C34.5358 77.0637 35.3307 77.4789 36.161 77.8498C36.5673 78.0353 36.9647 78.2561 37.371 78.4504L38.5811 79.0776C40.1798 79.9608 41.752 80.8441 43.2447 81.7892L44.3576 82.5046C44.7286 82.7431 45.0819 83.0081 45.444 83.2554C45.8062 83.5027 46.1595 83.7412 46.504 83.9973L47.5197 84.7923L48.0232 85.1721L48.2705 85.3664L48.509 85.5695L49.4541 86.3645C50.0988 86.8679 50.6641 87.4244 51.2206 87.9455L51.6534 88.343L51.8654 88.5373L52.0597 88.7405L52.8369 89.5354L53.5965 90.3038L54.2855 91.0899C55.2218 92.0968 55.9637 93.1038 56.6615 93.9694C57.0059 94.411 57.2886 94.8526 57.5447 95.2501C57.8009 95.6476 58.0924 96.0009 58.3132 96.3365C58.7283 97.0343 59.0816 97.5642 59.3201 97.9352L59.6822 98.5005C59.6822 98.5005 59.6116 98.2797 59.4702 97.8646C59.3289 97.4494 59.1169 96.84 58.8255 96.098C58.6665 95.7182 58.4722 95.3119 58.269 94.8526C58.1719 94.6318 58.0659 94.3933 57.9422 94.1549C57.8185 93.9164 57.8274 93.9075 57.7744 93.775C57.7414 93.715 57.7119 93.6531 57.6861 93.5896L57.5801 93.4041L56.6968 91.8054L56.4495 91.3726C56.37 91.2313 56.2728 91.0988 56.1757 90.9574L55.5927 90.0742L54.9833 89.1909L54.2943 88.3077L53.5612 87.4244L53.3757 87.1859L53.1814 86.9651C53.0401 86.8149 52.9076 86.656 52.7751 86.5058C52.2275 85.8964 51.671 85.2692 51.0086 84.6775L50.0723 83.7942L49.8339 83.5645L49.5865 83.3526L49.0831 82.9109L48.0585 82.0277L46.9809 81.1886L45.8768 80.3053L44.7198 79.5104C43.9602 78.9716 43.1476 78.4858 42.3438 77.9912C41.9375 77.735 41.5224 77.5142 41.1072 77.2757L39.8618 76.5868L38.5899 75.9508C38.166 75.7388 37.7067 75.518 37.318 75.3325C36.4348 74.9439 35.6045 74.5464 34.7389 74.2108L33.5642 73.5925L32.2746 73.1244C31.3913 72.8064 30.5611 72.5414 29.7131 72.2411C29.298 72.1086 28.8299 71.9938 28.4589 71.8701C28.0879 71.7465 27.6286 71.6228 27.2135 71.5257C26.3921 71.3137 25.5971 71.0929 24.8022 70.9251C23.23 70.5629 21.7285 70.2979 20.3329 70.0418C18.9373 69.7857 17.6831 69.6708 16.526 69.5737C15.369 69.4765 14.3974 69.4147 13.5848 69.3793C12.7722 69.344 12.1186 69.3793 11.6769 69.3793C11.2353 69.3793 10.9615 69.4235 10.9615 69.4235Z" fill="#00B2B2"/>
<path d="M124.726 110.451L124.134 110.142C123.737 109.957 123.163 109.665 122.412 109.338C121.661 109.012 120.743 108.623 119.674 108.234C118.605 107.846 117.386 107.413 116.044 106.998C114.701 106.583 113.226 106.176 111.628 105.823C110.841 105.629 110.029 105.487 109.199 105.311C108.783 105.222 108.315 105.16 107.927 105.081C107.538 105.001 107.043 104.931 106.628 104.869C105.745 104.745 104.862 104.613 103.978 104.533L102.609 104.383L101.223 104.295C100.339 104.224 99.359 104.207 98.4139 104.18C97.9458 104.18 97.4688 104.18 96.9919 104.18H95.5698L94.1477 104.268C93.6796 104.268 93.2027 104.313 92.7345 104.366C91.7894 104.463 90.8532 104.542 89.9258 104.701L88.5479 104.913C88.0886 104.993 87.6646 105.099 87.1876 105.187C86.7107 105.275 86.3044 105.372 85.8451 105.478L84.5379 105.823L83.9107 105.991L83.5839 106.079L83.2748 106.176L82.0382 106.591C81.2168 106.848 80.4395 107.174 79.6799 107.475L79.1235 107.713L78.8408 107.828L78.5758 107.952L77.5159 108.464L76.5002 108.967L75.5551 109.515L74.6718 110.045C74.5217 110.133 74.3715 110.213 74.239 110.301L73.8327 110.584L72.3223 111.626L72.1457 111.75L71.9867 111.882L71.6687 112.147L71.0681 112.642C70.6883 112.96 70.335 113.242 70.0259 113.525C69.4341 114.09 68.9836 114.55 68.6656 114.859L68.1975 115.336L68.7716 114.991C69.1426 114.753 69.6549 114.426 70.3703 113.993C70.7148 113.781 71.1211 113.578 71.5451 113.339C71.969 113.101 72.4283 112.836 72.9141 112.589C73.9299 112.112 75.0428 111.529 76.3147 111.034L77.2774 110.628L78.2932 110.266L79.3443 109.886L79.6093 109.789L79.8831 109.7L80.4395 109.541C81.1903 109.321 81.9411 109.064 82.736 108.888L83.9107 108.641L84.2111 108.57L84.5202 108.508L85.1385 108.376L86.3927 108.119C86.8167 108.04 87.276 107.987 87.6734 107.907C88.0709 107.828 88.5567 107.766 88.9718 107.713L90.2879 107.545C92.0544 107.333 93.8209 107.21 95.667 107.139H97.0272C97.4776 107.139 97.9104 107.139 98.3786 107.139C99.2618 107.139 100.145 107.139 101.081 107.183C102.848 107.183 104.614 107.36 106.381 107.501C107.264 107.572 108.068 107.669 108.889 107.748C109.711 107.828 110.515 107.934 111.292 108.049L112.449 108.199L113.571 108.367C114.304 108.473 115.01 108.605 115.691 108.711C117.051 108.941 118.34 109.162 119.409 109.382C120.478 109.603 121.476 109.798 122.271 109.965C123.066 110.133 123.693 110.275 124.108 110.381L124.726 110.451Z" fill="#00B2B2"/>
<path d="M121.89 104.084C120.76 103.572 119.594 103.139 118.428 102.715C117.262 102.291 116.078 101.911 114.895 101.54L113.128 101.019C112.528 100.86 111.927 100.692 111.362 100.542C110.152 100.242 108.942 99.9682 107.723 99.7121C107.105 99.5972 106.495 99.4647 105.886 99.3587L104.04 99.0496L102.185 98.7935L100.321 98.5815C99.694 98.5108 99.0757 98.4755 98.4486 98.4225L97.5123 98.3518H96.5672C95.3218 98.2723 94.0588 98.2812 92.8045 98.2812L90.9232 98.3342C90.6052 98.3342 90.2872 98.3342 89.9781 98.3872L89.033 98.4578L88.0879 98.5285L87.1516 98.6433L86.2066 98.7581C85.8974 98.7581 85.5794 98.8288 85.2703 98.8906L83.3978 99.1998C82.7707 99.3234 82.1612 99.4736 81.5341 99.6061L80.6067 99.818L79.7234 100.074L78.8401 100.33L78.3808 100.463L77.9304 100.613L76.1639 101.24C75.5721 101.47 74.9891 101.717 74.3973 101.964C74.1059 102.088 73.7967 102.194 73.5141 102.335L72.6308 102.759L71.7476 103.174L71.3148 103.386L70.8996 103.625L69.2302 104.588C68.9476 104.738 68.6915 104.923 68.4176 105.1L67.6227 105.639L66.8278 106.178C66.5628 106.363 66.3155 106.566 66.0593 106.76L64.5401 107.944L64.2398 108.183L64.072 108.712C64.072 108.845 63.9925 108.977 63.9572 109.11L63.807 109.49C63.754 109.605 63.6834 109.728 63.6215 109.843C63.5597 109.958 63.4802 110.073 63.4096 110.188L63.1534 110.506L62.8708 110.797L62.5616 111.062L62.226 111.292L61.8727 111.495L61.5017 111.654L61.1131 111.777L60.7156 111.866L60.3181 111.91H59.797H59.3907H59.1964H59.0904H58.9932H59.0639L58.5339 111.76C58.4191 111.76 58.3308 111.671 58.216 111.636L57.8627 111.451C57.7478 111.389 57.633 111.309 57.5182 111.239L57.2002 110.991L56.9087 110.709L56.6438 110.4L56.4053 110.064L56.211 109.711L56.0431 109.34L55.9195 108.951C55.9195 108.818 55.8577 108.695 55.8312 108.562L55.7782 108.156C55.7782 108.024 55.7782 107.882 55.7782 107.75V107.343C55.7782 107.211 55.7782 107.078 55.84 106.937L55.9283 106.39L55.7605 106.045L54.8772 104.279C54.7359 103.996 54.6034 103.704 54.4444 103.395L53.9586 102.565L53.4729 101.735C53.3139 101.461 53.1637 101.169 52.9782 100.913L51.8918 99.3234L51.618 98.926L51.3265 98.555L50.7347 97.7954L50.1341 97.0446C49.9398 96.7885 49.719 96.5588 49.507 96.3203C49.083 95.8434 48.6237 95.3664 48.2263 94.8983L46.8661 93.5557L46.5304 93.2201C46.4156 93.1053 46.2919 93.0081 46.1683 92.9021L45.4528 92.2662L44.7374 91.639C44.5077 91.4271 44.2428 91.2416 44.0043 91.0384C43.5008 90.6498 43.015 90.2435 42.5027 89.8637L40.957 88.7684C40.7009 88.583 40.4359 88.4151 40.1621 88.2385L39.3672 87.735L38.5722 87.2227L37.7508 86.7458L36.9293 86.2688C36.6644 86.1098 36.3906 85.9597 36.1079 85.8183L34.4297 84.9351C33.2991 84.3963 32.1774 83.8398 31.0115 83.3629L30.1282 82.9919L29.245 82.6563C28.662 82.4266 28.0791 82.1881 27.4784 81.985C26.8778 81.7818 26.3037 81.561 25.7119 81.3667L23.9454 80.7837L22.1789 80.2538C21.5783 80.086 20.9688 79.9358 20.3682 79.7768C19.1581 79.4765 17.948 79.1939 16.7291 78.8936L14.9008 78.5403L13.0636 78.2311C11.827 78.0456 10.5993 77.869 9.37157 77.7453C8.14383 77.6217 6.89843 77.5068 5.66187 77.4803C6.88077 77.657 8.09967 77.8778 9.30974 78.1251C10.5198 78.3724 11.721 78.6374 12.9223 78.9289L14.6888 79.3882L16.4553 79.874C17.6389 80.2096 18.8136 80.5718 19.9884 80.9516C20.5713 81.1547 21.1543 81.3402 21.7549 81.5522L23.5214 82.1705L25.235 82.8329L26.9308 83.5395C27.4961 83.7692 28.0437 84.0341 28.6002 84.2815L29.4834 84.6613L30.296 85.0676C31.4001 85.5975 32.4689 86.1805 33.5376 86.7546L35.1187 87.6379C35.3836 87.788 35.6398 87.947 35.8959 88.1148L36.6644 88.6006L37.4328 89.0864L38.1747 89.5987L38.8637 90.0933C39.111 90.2611 39.3583 90.4378 39.5968 90.6233L41.0365 91.7185C41.5046 92.0895 41.9198 92.487 42.4232 92.8756C42.6529 93.0699 42.8914 93.2554 43.1122 93.4586L43.7658 94.0768L44.4282 94.6863L44.7551 94.9954L45.0642 95.3222L46.3096 96.6206C46.7159 97.0623 47.0957 97.5039 47.4843 97.972C47.6786 98.2017 47.8818 98.4225 48.0585 98.661L48.5972 99.3764L49.136 100.092L49.4098 100.445C49.4982 100.569 49.5688 100.692 49.6572 100.816L50.6376 102.309C50.8142 102.556 50.9467 102.821 51.0969 103.077L51.5385 103.855L51.9801 104.632C52.1215 104.888 52.2363 105.162 52.3688 105.436L53.1372 107.043L53.0489 106.16L52.9959 106.875L52.9429 107.555C52.9429 107.785 52.9429 108.015 52.9429 108.244C52.9429 108.474 52.9871 108.704 53.0224 108.933C53.0577 109.163 53.1195 109.384 53.1637 109.605L53.3757 110.258C53.464 110.47 53.5612 110.682 53.6583 110.894C53.7555 111.106 53.8792 111.292 53.994 111.495L54.3826 112.06C54.5328 112.237 54.6741 112.413 54.8331 112.581C54.9921 112.749 55.1599 112.908 55.3277 113.058C55.4955 113.208 55.681 113.358 55.8665 113.491L56.4494 113.862L57.0677 114.18C57.2974 114.277 57.5535 114.374 57.7743 114.445L58.2955 114.595H58.375H58.4544H58.5428H58.7106L59.0462 114.657L59.7352 114.71H60.4241C60.6538 114.71 60.8834 114.657 61.1131 114.63L61.7843 114.48C62.0052 114.418 62.226 114.339 62.438 114.268L63.0739 113.986L63.6745 113.65C63.86 113.517 64.0543 113.394 64.231 113.252L64.7609 112.811C64.9199 112.643 65.0789 112.484 65.2379 112.307C65.3969 112.131 65.5294 111.954 65.6619 111.769C65.7943 111.583 65.918 111.38 66.0328 111.186C66.1477 110.991 66.2448 110.779 66.342 110.567C66.4391 110.355 66.5098 110.143 66.5893 109.931L66.7748 109.269L66.3067 110.037L67.7022 108.924C67.9319 108.739 68.1615 108.545 68.4 108.368L69.1331 107.865L69.8662 107.361C70.1075 107.183 70.3581 107.018 70.617 106.866L72.1538 105.983L72.5337 105.762L72.9311 105.559L73.7261 105.144L74.5298 104.738C74.7948 104.596 75.0686 104.491 75.3424 104.367C75.89 104.137 76.4377 103.881 76.9853 103.66L78.6723 103.033L79.0963 102.874L79.5291 102.742L80.4124 102.477L81.2956 102.212C81.5783 102.115 81.8697 102.062 82.1789 101.982C82.7707 101.841 83.3448 101.682 83.9454 101.549L85.7119 101.187C86.0034 101.116 86.3037 101.072 86.5952 101.028L87.4784 100.887L88.3617 100.745L89.245 100.648L90.1282 100.542C90.4285 100.542 90.7289 100.472 91.0115 100.454L92.831 100.313C94.0411 100.313 95.26 100.207 96.4789 100.216H97.3622H98.2454C98.8549 100.216 99.4643 100.216 100.074 100.277C100.683 100.339 101.301 100.33 101.911 100.383L103.739 100.533L105.568 100.719C106.177 100.781 106.787 100.869 107.396 100.94C108.615 101.108 109.825 101.293 111.035 101.505L112.855 101.841L114.665 102.212C115.843 102.471 117.044 102.765 118.269 103.095C119.532 103.386 120.724 103.713 121.89 104.084Z" fill="#003555"/>
<path d="M64.478 92.4692L70.2457 99.7561L72.1447 89.2629C69.6628 90.2875 67.1278 91.9392 64.478 92.4692Z" fill="#00B2B2"/>
<path d="M101.803 11.1203V6.1829C101.8 5.97968 101.837 5.77781 101.913 5.58925C101.989 5.40069 102.101 5.22927 102.245 5.08513C102.388 4.941 102.559 4.82709 102.747 4.75015C102.935 4.67321 103.137 4.6348 103.34 4.63719H108.728C108.928 4.63949 109.126 4.68136 109.31 4.7604C109.494 4.83944 109.661 4.95408 109.8 5.09774C109.94 5.24139 110.049 5.41122 110.123 5.59746C110.197 5.78369 110.233 5.98265 110.229 6.1829V9.027L101.803 11.1203Z" fill="#00B2B2"/>
</svg>
