<svg width="148" height="120" viewBox="0 0 148 120" fill="none" xmlns="http://www.w3.org/2000/svg">
<path d="M60.8945 70.6609C61.3273 73.7965 61.7778 76.8437 62.3431 80.05L60.8945 70.6609Z" fill="#F2F8FC"/>
<path d="M132.968 7.63196L129.974 12.0483L123.535 7.63196L119.242 13.8855L126.087 18.6639L129.011 14.0798L135.53 18.6639L139.778 12.2867L132.968 7.63196Z" fill="#F2F8FC"/>
<path d="M140.484 32.3182C139.705 29.9325 138.345 27.7776 136.527 26.0471C134.918 24.5307 132.785 23.6952 130.574 23.7153C128.565 23.7374 126.631 24.4803 125.124 25.8086C123.409 27.2579 122.034 29.0673 121.097 31.1082C120.143 33.0787 119.633 35.2345 119.604 37.4235C119.553 38.5048 119.736 39.5844 120.14 40.5887C120.544 41.5931 121.16 42.4987 121.944 43.2442C123.499 44.6868 125.807 45.4082 128.869 45.4082C130.981 45.4345 133.089 45.2331 135.158 44.8075C135.114 45.3375 135.043 45.8498 134.955 46.3356C134.911 46.6488 134.846 46.9587 134.761 47.263C132.99 47.7644 131.167 48.0607 129.329 48.1463C126.891 48.3524 122.683 48.4525 116.707 48.4466C115.344 48.4964 113.98 48.3627 112.653 48.0491C112.235 47.9307 111.847 47.7244 111.515 47.4442C111.182 47.164 110.914 46.8161 110.727 46.4239C110.259 45.2028 110.054 43.8964 110.126 42.5906V11.0846L109.526 10.6871L101.824 12.754V42.6612C101.862 44.3139 101.705 45.9652 101.356 47.581C99.6742 48.2567 97.8658 48.5581 96.0561 48.4643C94.9296 48.5092 93.8037 48.3629 92.7262 48.0315C91.9603 47.7315 91.2935 47.2237 90.8007 46.5652C90.0254 45.482 89.3372 44.339 88.7427 43.147C87.4178 40.5797 86.3431 38.663 85.5188 37.397C84.7659 36.2099 83.7984 35.1735 82.6658 34.3409C81.5249 33.5469 80.1601 33.1384 78.7706 33.175C76.642 33.175 74.2218 34.1024 71.5279 35.9661C68.9733 37.73 66.6499 39.8071 64.6119 42.1489L64.082 42.7672C62.5051 44.6095 61.3048 46.7431 60.5489 49.0472C59.7731 51.6452 59.4037 54.3475 59.4537 57.0584C59.5479 60.3297 59.8429 63.5921 60.337 66.8273C60.5136 68.108 60.6726 69.3622 60.8492 70.5988L62.2978 79.9879L62.5274 81.4364L63.9672 90.746C66.6169 90.3397 69.1519 88.1581 71.6692 87.213L66.7583 55.9896C66.6074 54.4547 66.5661 52.911 66.6346 51.3702L68.1538 49.6037C73.0765 54.9032 77.5959 57.553 81.7119 57.553C83.9377 57.553 85.8191 56.4489 87.3736 54.232C88.2305 55.0771 89.2613 55.7251 90.3944 56.131C91.6291 56.5291 92.9219 56.7172 94.2189 56.6874C96.8351 56.7687 99.4502 56.4923 101.992 55.866C103.757 55.3944 105.336 54.3925 106.514 52.9954C107.433 54.3448 108.743 55.3804 110.268 55.9632C111.746 56.5096 113.311 56.7878 114.887 56.7846C119.798 56.7846 123.664 56.711 126.484 56.5638C128.804 56.4723 131.111 56.1647 133.374 55.6452C134.948 55.2925 136.431 54.6157 137.728 53.6578C138.633 52.886 139.352 51.9198 139.831 50.8314C140.51 49.3718 141.011 47.8356 141.323 46.2561C141.704 44.5302 141.897 42.7681 141.897 41.0007C141.922 38.0474 141.444 35.1114 140.484 32.3182ZM80.7226 49.7715C79.3489 49.6822 78.0274 49.2111 76.907 48.4113C75.2486 47.32 73.7427 46.0131 72.4288 44.5249C73.3184 43.563 74.3208 42.7118 75.4142 41.9899C76.1606 41.4718 77.0338 41.1665 77.9404 41.1067C78.7353 41.1067 79.5391 41.6543 80.3693 42.7672C81.5386 44.4889 82.5497 46.3129 83.3901 48.2169C83.3957 48.2667 83.4174 48.3132 83.4519 48.3494C83.477 48.3748 83.4963 48.4053 83.5085 48.4389C83.5207 48.4724 83.5255 48.5082 83.5226 48.5437C83.1756 48.9426 82.7445 49.2595 82.2604 49.4718C81.7762 49.6841 81.2511 49.7864 80.7226 49.7715ZM130.547 38.2096C129.406 38.2795 128.263 38.1111 127.191 37.715C126.886 37.5856 126.626 37.3673 126.447 37.0884C126.267 36.8096 126.176 36.4831 126.184 36.1516C126.192 35.4049 126.39 34.6725 126.758 34.0229C127.119 33.3281 127.632 32.7241 128.26 32.2564C128.834 31.8047 129.543 31.559 130.274 31.5586C130.915 31.5855 131.539 31.7685 132.094 32.0918C132.648 32.415 133.114 32.8687 133.453 33.4135C134.397 34.7256 135.029 36.2362 135.299 37.8298C133.725 38.058 132.138 38.1848 130.547 38.2096Z" fill="#F2F8FC"/>
<path d="M10.9609 69.4235L11.6234 69.5737C12.0473 69.662 12.6656 69.821 13.4606 69.9976C14.2555 70.1743 15.2271 70.4304 16.2958 70.7219C17.3646 71.0134 18.6012 71.349 19.926 71.7288C20.5885 71.932 21.2863 72.1175 21.984 72.3559L23.0705 72.6827L24.1745 73.0537C24.9253 73.2922 25.6849 73.566 26.471 73.831L28.8382 74.7142C30.4369 75.3325 32.0797 75.9773 33.7049 76.7193C34.5352 77.0637 35.3301 77.4789 36.1604 77.8498C36.5667 78.0353 36.9642 78.2561 37.3705 78.4504L38.5805 79.0776C40.1793 79.9608 41.7515 80.8441 43.2442 81.7892L44.3571 82.5046C44.7281 82.7431 45.0814 83.0081 45.4435 83.2554C45.8056 83.5027 46.1589 83.7412 46.5034 83.9973L47.5192 84.7923L48.0226 85.1721L48.2699 85.3664L48.5084 85.5695L49.4535 86.3645C50.0983 86.8679 50.6636 87.4244 51.22 87.9455L51.6528 88.343L51.8648 88.5373L52.0591 88.7405L52.8364 89.5354L53.596 90.3038L54.2849 91.0899C55.2212 92.0968 55.9631 93.1038 56.6609 93.9694C57.0054 94.411 57.288 94.8526 57.5442 95.2501C57.8003 95.6476 58.0918 96.0009 58.3126 96.3365C58.7278 97.0343 59.0811 97.5642 59.3195 97.9352L59.6817 98.5005C59.6817 98.5005 59.611 98.2797 59.4697 97.8646C59.3284 97.4494 59.1164 96.84 58.8249 96.098C58.6659 95.7182 58.4716 95.3119 58.2685 94.8526C58.1713 94.6318 58.0653 94.3933 57.9417 94.1549C57.818 93.9164 57.8268 93.9075 57.7738 93.775C57.7408 93.715 57.7113 93.6531 57.6855 93.5896L57.5795 93.4041L56.6963 91.8054L56.4489 91.3726C56.3694 91.2313 56.2723 91.0988 56.1751 90.9574L55.5922 90.0742L54.9827 89.1909L54.2938 88.3077L53.5607 87.4244L53.3752 87.1859L53.1809 86.9651C53.0395 86.8149 52.9071 86.656 52.7746 86.5058C52.2269 85.8964 51.6705 85.2692 51.008 84.6775L50.0718 83.7942L49.8333 83.5645L49.586 83.3526L49.0825 82.9109L48.0579 82.0277L46.9804 81.1886L45.8763 80.3053L44.7192 79.5104C43.9596 78.9716 43.147 78.4858 42.3432 77.9912C41.9369 77.735 41.5218 77.5142 41.1067 77.2757L39.8613 76.5868L38.5894 75.9508C38.1654 75.7388 37.7061 75.518 37.3175 75.3325C36.4342 74.9439 35.604 74.5464 34.7384 74.2108L33.5636 73.5925L32.2741 73.1244C31.3908 72.8064 30.5605 72.5414 29.7126 72.2411C29.2975 72.1086 28.8293 71.9938 28.4584 71.8701C28.0874 71.7465 27.6281 71.6228 27.213 71.5257C26.3915 71.3137 25.5966 71.0929 24.8017 70.9251C23.2294 70.5629 21.7279 70.2979 20.3323 70.0418C18.9368 69.7857 17.6826 69.6708 16.5255 69.5737C15.3684 69.4765 14.3968 69.4147 13.5842 69.3793C12.7716 69.344 12.118 69.3793 11.6764 69.3793C11.2347 69.3793 10.9609 69.4235 10.9609 69.4235Z" fill="#00B2B2"/>
<path d="M124.728 110.451L124.136 110.142C123.739 109.957 123.165 109.665 122.414 109.338C121.663 109.012 120.744 108.623 119.676 108.234C118.607 107.846 117.388 107.413 116.046 106.998C114.703 106.583 113.228 106.176 111.629 105.823C110.843 105.629 110.031 105.487 109.2 105.311C108.785 105.222 108.317 105.16 107.928 105.081C107.54 105.001 107.045 104.931 106.63 104.869C105.747 104.745 104.863 104.613 103.98 104.533L102.611 104.383L101.224 104.295C100.341 104.224 99.3607 104.207 98.4156 104.18C97.9475 104.18 97.4705 104.18 96.9936 104.18H95.5715L94.1495 104.268C93.6813 104.268 93.2044 104.313 92.7362 104.366C91.7911 104.463 90.8549 104.542 89.9275 104.701L88.5496 104.913C88.0903 104.993 87.6663 105.099 87.1894 105.187C86.7124 105.275 86.3061 105.372 85.8468 105.478L84.5396 105.823L83.9125 105.991L83.5856 106.079L83.2765 106.176L82.0399 106.591C81.2185 106.848 80.4412 107.174 79.6816 107.475L79.1252 107.713L78.8425 107.828L78.5775 107.952L77.5176 108.464L76.5019 108.967L75.5568 109.515L74.6735 110.045C74.5234 110.133 74.3732 110.213 74.2407 110.301L73.8344 110.584L72.3241 111.626L72.1474 111.75L71.9884 111.882L71.6704 112.147L71.0698 112.642C70.69 112.96 70.3367 113.242 70.0276 113.525C69.4358 114.09 68.9853 114.55 68.6673 114.859L68.1992 115.336L68.7733 114.991C69.1443 114.753 69.6566 114.426 70.372 113.993C70.7165 113.781 71.1228 113.578 71.5468 113.339C71.9707 113.101 72.43 112.836 72.9158 112.589C73.9316 112.112 75.0445 111.529 76.3164 111.034L77.2792 110.628L78.2949 110.266L79.346 109.886L79.611 109.789L79.8848 109.7L80.4412 109.541C81.192 109.321 81.9428 109.064 82.7377 108.888L83.9125 108.641L84.2128 108.57L84.5219 108.508L85.1402 108.376L86.3944 108.119C86.8184 108.04 87.2777 107.987 87.6752 107.907C88.0726 107.828 88.5584 107.766 88.9735 107.713L90.2896 107.545C92.0561 107.333 93.8227 107.21 95.6687 107.139H97.0289C97.4794 107.139 97.9122 107.139 98.3803 107.139C99.2635 107.139 100.147 107.139 101.083 107.183C102.85 107.183 104.616 107.36 106.383 107.501C107.266 107.572 108.07 107.669 108.891 107.748C109.713 107.828 110.516 107.934 111.294 108.049L112.451 108.199L113.572 108.367C114.306 108.473 115.012 108.605 115.692 108.711C117.052 108.941 118.342 109.162 119.411 109.382C120.48 109.603 121.478 109.798 122.273 109.965C123.067 110.133 123.695 110.275 124.11 110.381L124.728 110.451Z" fill="#00B2B2"/>
<path d="M121.889 104.084C120.758 103.572 119.592 103.139 118.426 102.715C117.26 102.291 116.077 101.911 114.893 101.54L113.127 101.019C112.526 100.86 111.925 100.692 111.36 100.542C110.15 100.242 108.94 99.9682 107.721 99.7121C107.103 99.5972 106.493 99.4647 105.884 99.3587L104.038 99.0496L102.183 98.7935L100.319 98.5815C99.6923 98.5108 99.074 98.4755 98.4469 98.4225L97.5106 98.3518H96.5655C95.3201 98.2723 94.057 98.2812 92.8028 98.2812L90.9215 98.3342C90.6035 98.3342 90.2855 98.3342 89.9764 98.3872L89.0313 98.4578L88.0862 98.5285L87.1499 98.6433L86.2048 98.7581C85.8957 98.7581 85.5777 98.8288 85.2686 98.8906L83.3961 99.1998C82.7689 99.3234 82.1595 99.4736 81.5324 99.6061L80.605 99.818L79.7217 100.074L78.8384 100.33L78.3791 100.463L77.9287 100.613L76.1622 101.24C75.5704 101.47 74.9874 101.717 74.3956 101.964C74.1041 102.088 73.795 102.194 73.5124 102.335L72.6291 102.759L71.7458 103.174L71.313 103.386L70.8979 103.625L69.2285 104.588C68.9459 104.738 68.6898 104.923 68.4159 105.1L67.621 105.639L66.8261 106.178C66.5611 106.363 66.3138 106.566 66.0576 106.76L64.5384 107.944L64.2381 108.183L64.0703 108.712C64.0703 108.845 63.9908 108.977 63.9555 109.11L63.8053 109.49C63.7523 109.605 63.6816 109.728 63.6198 109.843C63.558 109.958 63.4785 110.073 63.4078 110.188L63.1517 110.506L62.8691 110.797L62.5599 111.062L62.2243 111.292L61.871 111.495L61.5 111.654L61.1114 111.777L60.7139 111.866L60.3164 111.91H59.7953H59.389H59.1947H59.0887H58.9915H59.0622L58.5322 111.76C58.4174 111.76 58.3291 111.671 58.2143 111.636L57.861 111.451C57.7461 111.389 57.6313 111.309 57.5165 111.239L57.1985 110.991L56.907 110.709L56.642 110.4L56.4036 110.064L56.2093 109.711L56.0414 109.34L55.9178 108.951C55.9178 108.818 55.8559 108.695 55.8294 108.562L55.7765 108.156C55.7765 108.024 55.7765 107.882 55.7765 107.75V107.343C55.7765 107.211 55.7765 107.078 55.8383 106.937L55.9266 106.39L55.7588 106.045L54.8755 104.279C54.7342 103.996 54.6017 103.704 54.4427 103.395L53.9569 102.565L53.4711 101.735C53.3122 101.461 53.162 101.169 52.9765 100.913L51.8901 99.3234L51.6163 98.926L51.3248 98.555L50.733 97.7954L50.1324 97.0446C49.9381 96.7885 49.7173 96.5588 49.5053 96.3203C49.0813 95.8434 48.622 95.3664 48.2246 94.8983L46.8643 93.5557L46.5287 93.2201C46.4139 93.1053 46.2902 93.0081 46.1666 92.9021L45.4511 92.2662L44.7357 91.639C44.506 91.4271 44.2411 91.2416 44.0026 91.0384C43.4991 90.6498 43.0133 90.2435 42.501 89.8637L40.9553 88.7684C40.6992 88.583 40.4342 88.4151 40.1604 88.2385L39.3654 87.735L38.5705 87.2227L37.7491 86.7458L36.9276 86.2688C36.6627 86.1098 36.3888 85.9597 36.1062 85.8183L34.428 84.9351C33.2974 84.3963 32.1757 83.8398 31.0098 83.3629L30.1265 82.9919L29.2433 82.6563C28.6603 82.4266 28.0774 82.1881 27.4767 81.985C26.8761 81.7818 26.302 81.561 25.7102 81.3667L23.9437 80.7837L22.1772 80.2538C21.5765 80.086 20.9671 79.9358 20.3665 79.7768C19.1564 79.4765 17.9463 79.1939 16.7274 78.8936L14.8991 78.5403L13.0619 78.2311C11.8253 78.0456 10.5976 77.869 9.36986 77.7453C8.14212 77.6217 6.89672 77.5068 5.66016 77.4803C6.87906 77.657 8.09796 77.8778 9.30803 78.1251C10.5181 78.3724 11.7193 78.6374 12.9206 78.9289L14.6871 79.3882L16.4536 79.874C17.6372 80.2096 18.8119 80.5718 19.9867 80.9516C20.5696 81.1547 21.1526 81.3402 21.7532 81.5522L23.5197 82.1705L25.2332 82.8329L26.9291 83.5395C27.4944 83.7692 28.042 84.0341 28.5985 84.2815L29.4817 84.6613L30.2943 85.0676C31.3984 85.5975 32.4672 86.1805 33.5359 86.7546L35.1169 87.6379C35.3819 87.788 35.6381 87.947 35.8942 88.1148L36.6627 88.6006L37.4311 89.0864L38.173 89.5987L38.862 90.0933C39.1093 90.2611 39.3566 90.4378 39.5951 90.6233L41.0348 91.7185C41.5029 92.0895 41.9181 92.487 42.4215 92.8756C42.6512 93.0699 42.8897 93.2554 43.1105 93.4586L43.7641 94.0768L44.4265 94.6863L44.7533 94.9954L45.0625 95.3222L46.3079 96.6206C46.7142 97.0623 47.094 97.5039 47.4826 97.972C47.6769 98.2017 47.8801 98.4225 48.0567 98.661L48.5955 99.3764L49.1343 100.092L49.4081 100.445C49.4965 100.569 49.5671 100.692 49.6554 100.816L50.6359 102.309C50.8125 102.556 50.945 102.821 51.0952 103.077L51.5368 103.855L51.9784 104.632C52.1197 104.888 52.2346 105.162 52.3671 105.436L53.1355 107.043L53.0472 106.16L52.9942 106.875L52.9412 107.555C52.9412 107.785 52.9412 108.015 52.9412 108.244C52.9412 108.474 52.9853 108.704 53.0207 108.933C53.056 109.163 53.1178 109.384 53.162 109.605L53.374 110.258C53.4623 110.47 53.5595 110.682 53.6566 110.894C53.7538 111.106 53.8774 111.292 53.9923 111.495L54.3809 112.06C54.5311 112.237 54.6724 112.413 54.8314 112.581C54.9904 112.749 55.1582 112.908 55.326 113.058C55.4938 113.208 55.6793 113.358 55.8648 113.491L56.4477 113.862L57.066 114.18C57.2957 114.277 57.5518 114.374 57.7726 114.445L58.2938 114.595H58.3732H58.4527H58.5411H58.7089L59.0445 114.657L59.7335 114.71H60.4224C60.6521 114.71 60.8817 114.657 61.1114 114.63L61.7826 114.48C62.0035 114.418 62.2243 114.339 62.4362 114.268L63.0722 113.986L63.6728 113.65C63.8583 113.517 64.0526 113.394 64.2293 113.252L64.7592 112.811C64.9182 112.643 65.0772 112.484 65.2362 112.307C65.3952 112.131 65.5277 111.954 65.6602 111.769C65.7926 111.583 65.9163 111.38 66.0311 111.186C66.146 110.991 66.2431 110.779 66.3403 110.567C66.4374 110.355 66.5081 110.143 66.5876 109.931L66.7731 109.269L66.3049 110.037L67.7005 108.924C67.9301 108.739 68.1598 108.545 68.3983 108.368L69.1314 107.865L69.8645 107.361C70.1058 107.183 70.3564 107.018 70.6153 106.866L72.1521 105.983L72.5319 105.762L72.9294 105.559L73.7243 105.144L74.5281 104.738C74.7931 104.596 75.0669 104.491 75.3407 104.367C75.8883 104.137 76.436 103.881 76.9836 103.66L78.6706 103.033L79.0946 102.874L79.5274 102.742L80.4106 102.477L81.2939 102.212C81.5765 102.115 81.868 102.062 82.1772 101.982C82.769 101.841 83.3431 101.682 83.9437 101.549L85.7102 101.187C86.0017 101.116 86.302 101.072 86.5935 101.028L87.4767 100.887L88.36 100.745L89.2433 100.648L90.1265 100.542C90.4268 100.542 90.7271 100.472 91.0098 100.454L92.8293 100.313C94.0394 100.313 95.2583 100.207 96.4772 100.216H97.3604H98.2437C98.8532 100.216 99.4626 100.216 100.072 100.277C100.682 100.339 101.3 100.33 101.909 100.383L103.738 100.533L105.566 100.719C106.175 100.781 106.785 100.869 107.394 100.94C108.613 101.108 109.823 101.293 111.033 101.505L112.853 101.841L114.664 102.212C115.841 102.471 117.042 102.765 118.267 103.095C119.53 103.386 120.723 103.713 121.889 104.084Z" fill="#F2F8FC"/>
<path d="M64.4766 92.4692L70.2443 99.7561L72.1433 89.2629C69.6613 90.2875 67.1263 91.9392 64.4766 92.4692Z" fill="#00B2B2"/>
<path d="M101.805 11.1203V6.1829C101.801 5.97968 101.839 5.77781 101.914 5.58925C101.99 5.40069 102.103 5.22927 102.247 5.08513C102.39 4.941 102.561 4.82709 102.749 4.75015C102.937 4.67321 103.139 4.6348 103.342 4.63719H108.73C108.93 4.63949 109.128 4.68136 109.312 4.7604C109.496 4.83944 109.662 4.95408 109.802 5.09774C109.942 5.24139 110.051 5.41122 110.125 5.59746C110.199 5.78369 110.235 5.98265 110.231 6.1829V9.027L101.805 11.1203Z" fill="#00B2B2"/>
</svg>
